<?xml version="1.0" encoding="utf-8"?>
<!-- Generator: Adobe Illustrator 24.0.1, SVG Export Plug-In . SVG Version: 6.00 Build 0)  -->
<svg version="1.1" id="Layer_1" xmlns="http://www.w3.org/2000/svg" xmlns:xlink="http://www.w3.org/1999/xlink" x="0px" y="0px"
	 viewBox="0 0 1000 523.4" style="enable-background:new 0 0 1000 523.4;" xml:space="preserve">
<g>
	<path d="M497.5,523.4c-144.3,0-261.7-117.4-261.7-261.7C235.8,117.4,353.2,0,497.5,0c144.3,0,261.7,117.4,261.7,261.7
		C759.2,406,641.8,523.4,497.5,523.4z M497.5,7C357,7,242.8,121.3,242.8,261.7c0,140.5,114.3,254.7,254.7,254.7
		c140.5,0,254.7-114.3,254.7-254.7C752.2,121.3,638,7,497.5,7z"/>
	<path d="M501,373.4C221.2,373.4,2,323.6,2,260c0-42.2,95.7-79.3,255.9-99.3l0.9,6.9C107,186.5,9,222.8,9,260
		c0,57.7,225.3,106.4,492,106.4S993,317.7,993,260c0-37.8-100.6-74.4-256.2-93.2l0.8-6.9C901.9,179.7,1000,217.1,1000,260
		C1000,323.6,780.8,373.4,501,373.4z"/>
	<polygon points="291.1,361.2 285.2,357.6 501.1,3.7 709.9,357.6 703.9,361.2 500.9,17.3 	"/>
	<rect x="497.5" y="310.6" width="7" height="59.3"/>
</g>
</svg>
